<svg width="1331" height="268" viewBox="0 0 1331 268" fill="none" xmlns="http://www.w3.org/2000/svg">
<rect width="1331" height="268" fill="#B7B7B7"/>
<rect x="0.5" y="0.5" width="1330" height="133" fill="#D9D9D9" stroke="black"/>
<rect x="0.5" y="134.5" width="1330" height="133" fill="#D9D9D9" stroke="black"/>
<rect x="0.5" y="0.5" width="507" height="267" fill="#D9D9D9" fill-opacity="0.05" stroke="black"/>
<path d="M164.045 213.318V210.682H165.5C166.061 210.682 166.53 210.572 166.909 210.352C167.295 210.133 167.614 209.848 167.864 209.5C168.121 209.152 168.333 208.788 168.5 208.409L168.864 207.545L160.818 189.727H163.864L170.273 204.182L176.136 189.727H179.136L171.091 209.227C170.773 209.955 170.409 210.629 170 211.25C169.598 211.871 169.049 212.371 168.352 212.75C167.663 213.129 166.727 213.318 165.545 213.318H164.045ZM191.915 195.545V198.045H183.824V213H181.142V195.545H191.915ZM202.014 213.364C200.438 213.364 199.056 212.989 197.866 212.239C196.685 211.489 195.76 210.439 195.094 209.091C194.435 207.742 194.105 206.167 194.105 204.364C194.105 202.545 194.435 200.958 195.094 199.602C195.76 198.246 196.685 197.193 197.866 196.443C199.056 195.693 200.438 195.318 202.014 195.318C203.59 195.318 204.969 195.693 206.151 196.443C207.34 197.193 208.264 198.246 208.923 199.602C209.59 200.958 209.923 202.545 209.923 204.364C209.923 206.167 209.59 207.742 208.923 209.091C208.264 210.439 207.34 211.489 206.151 212.239C204.969 212.989 203.59 213.364 202.014 213.364ZM202.014 210.955C203.211 210.955 204.196 210.648 204.969 210.034C205.741 209.42 206.313 208.614 206.685 207.614C207.056 206.614 207.241 205.53 207.241 204.364C207.241 203.197 207.056 202.11 206.685 201.102C206.313 200.095 205.741 199.28 204.969 198.659C204.196 198.038 203.211 197.727 202.014 197.727C200.817 197.727 199.832 198.038 199.06 198.659C198.287 199.28 197.715 200.095 197.344 201.102C196.973 202.11 196.787 203.197 196.787 204.364C196.787 205.53 196.973 206.614 197.344 207.614C197.715 208.614 198.287 209.42 199.06 210.034C199.832 210.648 200.817 210.955 202.014 210.955ZM212.472 213V210.5H213.108C213.631 210.5 214.066 210.398 214.415 210.193C214.763 209.981 215.044 209.614 215.256 209.091C215.475 208.561 215.642 207.826 215.756 206.886C215.877 205.939 215.964 204.735 216.017 203.273L216.335 195.545H227.972V213H225.29V198.045H218.881L218.608 204.273C218.547 205.705 218.419 206.966 218.222 208.057C218.032 209.14 217.741 210.049 217.347 210.784C216.96 211.519 216.445 212.072 215.801 212.443C215.157 212.814 214.35 213 213.381 213H212.472ZM235.21 201.864H240.21C242.256 201.864 243.82 202.383 244.903 203.42C245.987 204.458 246.528 205.773 246.528 207.364C246.528 208.409 246.286 209.36 245.801 210.216C245.316 211.064 244.604 211.742 243.665 212.25C242.725 212.75 241.574 213 240.21 213H232.892V195.545H235.574V210.5H240.21C241.271 210.5 242.142 210.22 242.824 209.659C243.506 209.098 243.847 208.379 243.847 207.5C243.847 206.576 243.506 205.822 242.824 205.239C242.142 204.655 241.271 204.364 240.21 204.364H235.21V201.864ZM257.974 218.636V210.5H259.474C259.99 210.03 260.474 209.367 260.929 208.511C261.391 207.648 261.781 206.496 262.099 205.057C262.425 203.61 262.641 201.773 262.747 199.545L263.247 189.727H277.065V210.5H279.747V218.591H277.065V213H260.656V218.636H257.974ZM262.838 210.5H274.384V192.227H265.793L265.429 199.545C265.338 201.242 265.179 202.78 264.952 204.159C264.724 205.53 264.433 206.746 264.077 207.807C263.721 208.86 263.308 209.758 262.838 210.5ZM301.415 189.727V213H298.597V192.227H286.869V213H284.051V189.727H301.415ZM320.781 213L312.781 202.318H309.918V213H307.099V189.727H309.918V199.818H311.145L320.463 189.727H323.827L314.418 199.955L324.145 213H320.781Z" fill="black"/>
<path d="M175.227 55.7273V79H172.409V58.2273H160.682V79H157.864V55.7273H175.227ZM180.548 85.5455V61.5455H183.139V64.3182H183.457C183.654 64.0152 183.927 63.6288 184.276 63.1591C184.632 62.6818 185.139 62.2576 185.798 61.8864C186.465 61.5076 187.366 61.3182 188.503 61.3182C189.973 61.3182 191.268 61.6856 192.389 62.4205C193.51 63.1553 194.385 64.197 195.014 65.5455C195.643 66.8939 195.957 68.4848 195.957 70.3182C195.957 72.1667 195.643 73.7689 195.014 75.125C194.385 76.4735 193.514 77.5189 192.401 78.2614C191.287 78.9962 190.003 79.3636 188.548 79.3636C187.427 79.3636 186.529 79.178 185.855 78.8068C185.181 78.428 184.662 78 184.298 77.5227C183.935 77.0379 183.654 76.6364 183.457 76.3182H183.23V85.5455H180.548ZM183.185 70.2727C183.185 71.5909 183.378 72.7538 183.764 73.7614C184.151 74.7614 184.715 75.5455 185.457 76.1136C186.2 76.6742 187.109 76.9545 188.185 76.9545C189.306 76.9545 190.241 76.6591 190.991 76.0682C191.749 75.4697 192.317 74.6667 192.696 73.6591C193.082 72.6439 193.276 71.5152 193.276 70.2727C193.276 69.0455 193.086 67.9394 192.707 66.9545C192.336 65.9621 191.772 65.178 191.014 64.6023C190.264 64.0189 189.321 63.7273 188.185 63.7273C187.094 63.7273 186.177 64.0038 185.435 64.5568C184.692 65.1023 184.132 65.8674 183.753 66.8523C183.374 67.8295 183.185 68.9697 183.185 70.2727ZM207.139 79.3636C205.563 79.3636 204.181 78.9886 202.991 78.2386C201.81 77.4886 200.885 76.4394 200.219 75.0909C199.56 73.7424 199.23 72.1667 199.23 70.3636C199.23 68.5455 199.56 66.9583 200.219 65.6023C200.885 64.2462 201.81 63.1932 202.991 62.4432C204.181 61.6932 205.563 61.3182 207.139 61.3182C208.715 61.3182 210.094 61.6932 211.276 62.4432C212.465 63.1932 213.389 64.2462 214.048 65.6023C214.715 66.9583 215.048 68.5455 215.048 70.3636C215.048 72.1667 214.715 73.7424 214.048 75.0909C213.389 76.4394 212.465 77.4886 211.276 78.2386C210.094 78.9886 208.715 79.3636 207.139 79.3636ZM207.139 76.9545C208.336 76.9545 209.321 76.6477 210.094 76.0341C210.866 75.4205 211.438 74.6136 211.81 73.6136C212.181 72.6136 212.366 71.5303 212.366 70.3636C212.366 69.197 212.181 68.1098 211.81 67.1023C211.438 66.0947 210.866 65.2803 210.094 64.6591C209.321 64.0379 208.336 63.7273 207.139 63.7273C205.942 63.7273 204.957 64.0379 204.185 64.6591C203.412 65.2803 202.84 66.0947 202.469 67.1023C202.098 68.1098 201.912 69.197 201.912 70.3636C201.912 71.5303 202.098 72.6136 202.469 73.6136C202.84 74.6136 203.412 75.4205 204.185 76.0341C204.957 76.6477 205.942 76.9545 207.139 76.9545ZM217.278 84V76.5H218.733C219.089 76.1288 219.396 75.7273 219.653 75.2955C219.911 74.8636 220.134 74.3523 220.324 73.7614C220.521 73.1629 220.688 72.4356 220.824 71.5795C220.96 70.7159 221.081 69.6742 221.188 68.4545L221.778 61.5455H232.869V76.5H235.551V84H232.869V79H219.96V84H217.278ZM221.778 76.5H230.188V64.0455H224.278L223.824 68.4545C223.634 70.2803 223.4 71.875 223.119 73.2386C222.839 74.6023 222.392 75.6894 221.778 76.5ZM240.838 85.5455C240.384 85.5455 239.978 85.5076 239.622 85.4318C239.266 85.3636 239.02 85.2955 238.884 85.2273L239.565 82.8636C240.217 83.0303 240.793 83.0909 241.293 83.0455C241.793 83 242.236 82.7765 242.622 82.375C243.016 81.9811 243.376 81.3409 243.702 80.4545L244.202 79.0909L237.747 61.5455H240.656L245.474 75.4545H245.656L250.474 61.5455H253.384L245.974 81.5455C245.641 82.447 245.228 83.1932 244.736 83.7841C244.243 84.3826 243.671 84.8258 243.02 85.1136C242.376 85.4015 241.649 85.5455 240.838 85.5455ZM256.923 79V61.5455H259.605V69.1364H261.378L267.651 61.5455H271.105L264.06 69.9545L271.196 79H267.741L262.014 71.6364H259.605V79H256.923ZM287.838 61.5455V76.5H290.293V84.6364H287.611V79H274.111V61.5455H276.793V76.5H285.156V61.5455H287.838ZM297.105 75.0455L305.514 61.5455H308.605V79H305.923V65.5L297.56 79H294.423V61.5455H297.105V75.0455ZM324.017 79V64H319.381C318.335 64 317.513 64.2424 316.915 64.7273C316.316 65.2121 316.017 65.8788 316.017 66.7273C316.017 67.5606 316.286 68.2159 316.824 68.6932C317.369 69.1705 318.116 69.4091 319.062 69.4091H324.699V71.9091H319.062C317.881 71.9091 316.862 71.7008 316.006 71.2841C315.15 70.8674 314.491 70.2727 314.028 69.5C313.566 68.7197 313.335 67.7955 313.335 66.7273C313.335 65.6515 313.578 64.7273 314.062 63.9545C314.547 63.1818 315.241 62.5871 316.142 62.1705C317.051 61.7538 318.131 61.5455 319.381 61.5455H326.562V79H324.017ZM312.381 79L317.335 70.3182H320.244L315.29 79H312.381Z" fill="black"/>
<rect x="508.5" y="0.5" width="472" height="267" fill="#D9D9D9" fill-opacity="0.05" stroke="black"/>
<path d="M672.558 213L682.967 192.409V192.227H670.967V189.727H685.876V192.364L675.513 213H672.558ZM697.203 213.318C695.491 213.318 694.033 212.852 692.828 211.92C691.624 210.981 690.703 209.621 690.067 207.841C689.43 206.053 689.112 203.894 689.112 201.364C689.112 198.848 689.43 196.701 690.067 194.92C690.711 193.133 691.635 191.769 692.839 190.83C694.052 189.883 695.506 189.409 697.203 189.409C698.9 189.409 700.351 189.883 701.555 190.83C702.768 191.769 703.692 193.133 704.328 194.92C704.972 196.701 705.294 198.848 705.294 201.364C705.294 203.894 704.976 206.053 704.339 207.841C703.703 209.621 702.783 210.981 701.578 211.92C700.374 212.852 698.915 213.318 697.203 213.318ZM697.203 210.818C698.9 210.818 700.218 210 701.158 208.364C702.097 206.727 702.567 204.394 702.567 201.364C702.567 199.348 702.351 197.633 701.919 196.216C701.495 194.799 700.881 193.72 700.078 192.977C699.283 192.235 698.324 191.864 697.203 191.864C695.521 191.864 694.207 192.693 693.26 194.352C692.313 196.004 691.839 198.341 691.839 201.364C691.839 203.379 692.052 205.091 692.476 206.5C692.9 207.909 693.51 208.981 694.305 209.716C695.108 210.451 696.074 210.818 697.203 210.818ZM717.203 213.318C715.491 213.318 714.033 212.852 712.828 211.92C711.624 210.981 710.703 209.621 710.067 207.841C709.43 206.053 709.112 203.894 709.112 201.364C709.112 198.848 709.43 196.701 710.067 194.92C710.711 193.133 711.635 191.769 712.839 190.83C714.052 189.883 715.506 189.409 717.203 189.409C718.9 189.409 720.351 189.883 721.555 190.83C722.768 191.769 723.692 193.133 724.328 194.92C724.972 196.701 725.294 198.848 725.294 201.364C725.294 203.894 724.976 206.053 724.339 207.841C723.703 209.621 722.783 210.981 721.578 211.92C720.374 212.852 718.915 213.318 717.203 213.318ZM717.203 210.818C718.9 210.818 720.218 210 721.158 208.364C722.097 206.727 722.567 204.394 722.567 201.364C722.567 199.348 722.351 197.633 721.919 196.216C721.495 194.799 720.881 193.72 720.078 192.977C719.283 192.235 718.324 191.864 717.203 191.864C715.521 191.864 714.207 192.693 713.26 194.352C712.313 196.004 711.839 198.341 711.839 201.364C711.839 203.379 712.052 205.091 712.476 206.5C712.9 207.909 713.51 208.981 714.305 209.716C715.108 210.451 716.074 210.818 717.203 210.818ZM737.203 213.318C735.491 213.318 734.033 212.852 732.828 211.92C731.624 210.981 730.703 209.621 730.067 207.841C729.43 206.053 729.112 203.894 729.112 201.364C729.112 198.848 729.43 196.701 730.067 194.92C730.711 193.133 731.635 191.769 732.839 190.83C734.052 189.883 735.506 189.409 737.203 189.409C738.9 189.409 740.351 189.883 741.555 190.83C742.768 191.769 743.692 193.133 744.328 194.92C744.972 196.701 745.294 198.848 745.294 201.364C745.294 203.894 744.976 206.053 744.339 207.841C743.703 209.621 742.783 210.981 741.578 211.92C740.374 212.852 738.915 213.318 737.203 213.318ZM737.203 210.818C738.9 210.818 740.218 210 741.158 208.364C742.097 206.727 742.567 204.394 742.567 201.364C742.567 199.348 742.351 197.633 741.919 196.216C741.495 194.799 740.881 193.72 740.078 192.977C739.283 192.235 738.324 191.864 737.203 191.864C735.521 191.864 734.207 192.693 733.26 194.352C732.313 196.004 731.839 198.341 731.839 201.364C731.839 203.379 732.052 205.091 732.476 206.5C732.9 207.909 733.51 208.981 734.305 209.716C735.108 210.451 736.074 210.818 737.203 210.818ZM758.658 219.545V195.545H761.249V198.318H761.567C761.764 198.015 762.036 197.629 762.385 197.159C762.741 196.682 763.249 196.258 763.908 195.886C764.574 195.508 765.476 195.318 766.612 195.318C768.082 195.318 769.377 195.686 770.499 196.42C771.62 197.155 772.495 198.197 773.124 199.545C773.752 200.894 774.067 202.485 774.067 204.318C774.067 206.167 773.752 207.769 773.124 209.125C772.495 210.473 771.624 211.519 770.51 212.261C769.396 212.996 768.112 213.364 766.658 213.364C765.536 213.364 764.639 213.178 763.964 212.807C763.29 212.428 762.771 212 762.408 211.523C762.044 211.038 761.764 210.636 761.567 210.318H761.339V219.545H758.658ZM761.294 204.273C761.294 205.591 761.487 206.754 761.874 207.761C762.26 208.761 762.824 209.545 763.567 210.114C764.309 210.674 765.218 210.955 766.294 210.955C767.415 210.955 768.351 210.659 769.101 210.068C769.858 209.47 770.427 208.667 770.805 207.659C771.192 206.644 771.385 205.515 771.385 204.273C771.385 203.045 771.196 201.939 770.817 200.955C770.446 199.962 769.881 199.178 769.124 198.602C768.374 198.019 767.43 197.727 766.294 197.727C765.203 197.727 764.286 198.004 763.544 198.557C762.802 199.102 762.241 199.867 761.862 200.852C761.483 201.83 761.294 202.97 761.294 204.273ZM779.26 219.545C778.805 219.545 778.4 219.508 778.044 219.432C777.688 219.364 777.442 219.295 777.305 219.227L777.987 216.864C778.639 217.03 779.214 217.091 779.714 217.045C780.214 217 780.658 216.777 781.044 216.375C781.438 215.981 781.798 215.341 782.124 214.455L782.624 213.091L776.169 195.545H779.078L783.896 209.455H784.078L788.896 195.545H791.805L784.396 215.545C784.063 216.447 783.65 217.193 783.158 217.784C782.665 218.383 782.093 218.826 781.442 219.114C780.798 219.402 780.071 219.545 779.26 219.545ZM808.3 189L809.663 190.636C809.133 191.152 808.519 191.511 807.822 191.716C807.125 191.92 806.338 192.045 805.459 192.091C804.58 192.136 803.603 192.182 802.527 192.227C801.315 192.273 800.311 192.568 799.516 193.114C798.72 193.659 798.107 194.447 797.675 195.477C797.243 196.508 796.966 197.773 796.845 199.273H797.072C797.663 198.182 798.482 197.379 799.527 196.864C800.572 196.348 801.694 196.091 802.891 196.091C804.254 196.091 805.482 196.409 806.572 197.045C807.663 197.682 808.527 198.625 809.163 199.875C809.8 201.125 810.118 202.667 810.118 204.5C810.118 206.326 809.792 207.902 809.141 209.227C808.497 210.553 807.591 211.576 806.425 212.295C805.266 213.008 803.906 213.364 802.345 213.364C800.785 213.364 799.417 212.996 798.243 212.261C797.069 211.519 796.156 210.42 795.504 208.966C794.853 207.504 794.527 205.697 794.527 203.545V201.682C794.527 197.795 795.186 194.848 796.504 192.841C797.83 190.833 799.822 189.795 802.482 189.727C803.421 189.697 804.258 189.689 804.993 189.705C805.728 189.72 806.368 189.686 806.913 189.602C807.459 189.519 807.921 189.318 808.3 189ZM802.345 210.955C803.398 210.955 804.304 210.689 805.061 210.159C805.826 209.629 806.413 208.883 806.822 207.92C807.232 206.951 807.436 205.811 807.436 204.5C807.436 203.227 807.228 202.144 806.811 201.25C806.402 200.356 805.815 199.674 805.05 199.205C804.285 198.735 803.368 198.5 802.3 198.5C801.519 198.5 800.819 198.633 800.197 198.898C799.576 199.163 799.046 199.553 798.607 200.068C798.167 200.583 797.826 201.212 797.584 201.955C797.349 202.697 797.224 203.545 797.209 204.5C797.209 206.455 797.667 208.019 798.584 209.193C799.5 210.367 800.754 210.955 802.345 210.955ZM816.175 213.182C815.614 213.182 815.133 212.981 814.732 212.58C814.33 212.178 814.129 211.697 814.129 211.136C814.129 210.576 814.33 210.095 814.732 209.693C815.133 209.292 815.614 209.091 816.175 209.091C816.735 209.091 817.216 209.292 817.618 209.693C818.019 210.095 818.22 210.576 818.22 211.136C818.22 211.508 818.125 211.848 817.936 212.159C817.754 212.47 817.508 212.72 817.197 212.909C816.894 213.091 816.554 213.182 816.175 213.182Z" fill="black"/>
<rect x="981.5" y="0.5" width="349" height="267" fill="#D9D9D9" fill-opacity="0.05" stroke="black"/>
<path d="M644.716 64.3182L644.398 72.5H641.489V67H639.852V64.3182H644.716ZM624.943 67V43.7273H627.625V64.4091H639.625V43.7273H642.307V67H624.943ZM655.929 67.3636C654.247 67.3636 652.796 66.9924 651.577 66.25C650.365 65.5 649.429 64.4545 648.77 63.1136C648.118 61.7652 647.793 60.197 647.793 58.4091C647.793 56.6212 648.118 55.0455 648.77 53.6818C649.429 52.3106 650.346 51.2424 651.52 50.4773C652.702 49.7045 654.08 49.3182 655.656 49.3182C656.565 49.3182 657.463 49.4697 658.349 49.7727C659.236 50.0758 660.043 50.5682 660.77 51.25C661.497 51.9242 662.077 52.8182 662.509 53.9318C662.94 55.0455 663.156 56.4167 663.156 58.0455V59.1818H649.702V56.8636H660.429C660.429 55.8788 660.232 55 659.838 54.2273C659.452 53.4545 658.899 52.8447 658.179 52.3977C657.467 51.9508 656.626 51.7273 655.656 51.7273C654.588 51.7273 653.664 51.9924 652.884 52.5227C652.111 53.0455 651.516 53.7273 651.099 54.5682C650.683 55.4091 650.474 56.3106 650.474 57.2727V58.8182C650.474 60.1364 650.702 61.2538 651.156 62.1705C651.618 63.0795 652.259 63.7727 653.077 64.25C653.895 64.7197 654.846 64.9545 655.929 64.9545C656.634 64.9545 657.27 64.8561 657.838 64.6591C658.414 64.4545 658.91 64.1515 659.327 63.75C659.743 63.3409 660.065 62.8333 660.293 62.2273L662.884 62.9545C662.611 63.8333 662.152 64.6061 661.509 65.2727C660.865 65.9318 660.069 66.447 659.122 66.8182C658.175 67.1818 657.111 67.3636 655.929 67.3636ZM678.918 57.0455V59.5455H669.281V57.0455H678.918ZM669.918 49.5455V67H667.236V49.5455H669.918ZM680.963 49.5455V67H678.281V49.5455H680.963ZM690.997 67.4091C689.891 67.4091 688.887 67.2008 687.986 66.7841C687.084 66.3598 686.368 65.75 685.838 64.9545C685.308 64.1515 685.043 63.1818 685.043 62.0455C685.043 61.0455 685.24 60.2348 685.634 59.6136C686.027 58.9848 686.554 58.4924 687.213 58.1364C687.872 57.7803 688.599 57.5152 689.395 57.3409C690.198 57.1591 691.005 57.0152 691.815 56.9091C692.876 56.7727 693.736 56.6705 694.395 56.6023C695.062 56.5265 695.546 56.4015 695.849 56.2273C696.16 56.053 696.315 55.75 696.315 55.3182V55.2273C696.315 54.1061 696.009 53.2348 695.395 52.6136C694.789 51.9924 693.868 51.6818 692.634 51.6818C691.353 51.6818 690.349 51.9621 689.622 52.5227C688.895 53.0833 688.384 53.6818 688.088 54.3182L685.543 53.4091C685.997 52.3485 686.603 51.5227 687.361 50.9318C688.126 50.3333 688.959 49.9167 689.861 49.6818C690.77 49.4394 691.664 49.3182 692.543 49.3182C693.103 49.3182 693.747 49.3864 694.474 49.5227C695.209 49.6515 695.918 49.9205 696.599 50.3295C697.289 50.7386 697.861 51.3561 698.315 52.1818C698.77 53.0076 698.997 54.1136 698.997 55.5V67H696.315V64.6364H696.179C695.997 65.0152 695.694 65.4205 695.27 65.8523C694.846 66.2841 694.281 66.6515 693.577 66.9545C692.872 67.2576 692.012 67.4091 690.997 67.4091ZM691.406 65C692.467 65 693.361 64.7917 694.088 64.375C694.823 63.9583 695.376 63.4205 695.747 62.7614C696.126 62.1023 696.315 61.4091 696.315 60.6818V58.2273C696.202 58.3636 695.952 58.4886 695.565 58.6023C695.187 58.7083 694.747 58.803 694.247 58.8864C693.755 58.9621 693.274 59.0303 692.804 59.0909C692.342 59.1439 691.967 59.1894 691.679 59.2273C690.982 59.3182 690.33 59.4659 689.724 59.6705C689.126 59.8674 688.641 60.1667 688.27 60.5682C687.906 60.9621 687.724 61.5 687.724 62.1818C687.724 63.1136 688.069 63.8182 688.759 64.2955C689.455 64.7652 690.338 65 691.406 65ZM711.801 62.5455H714.665C714.725 63.3333 715.081 63.9318 715.733 64.3409C716.392 64.75 717.248 64.9545 718.301 64.9545C719.377 64.9545 720.297 64.7348 721.062 64.2955C721.828 63.8485 722.21 63.1288 722.21 62.1364C722.21 61.553 722.066 61.0455 721.778 60.6136C721.491 60.1742 721.085 59.8333 720.562 59.5909C720.04 59.3485 719.422 59.2273 718.71 59.2273H715.71V56.8182H718.71C719.778 56.8182 720.566 56.5758 721.074 56.0909C721.589 55.6061 721.847 55 721.847 54.2727C721.847 53.4924 721.57 52.8674 721.017 52.3977C720.464 51.9205 719.68 51.6818 718.665 51.6818C717.642 51.6818 716.79 51.9129 716.108 52.375C715.426 52.8295 715.066 53.4167 715.028 54.1364H712.21C712.241 53.197 712.528 52.3674 713.074 51.6477C713.619 50.9205 714.362 50.3523 715.301 49.9432C716.241 49.5265 717.316 49.3182 718.528 49.3182C719.756 49.3182 720.82 49.5341 721.722 49.9659C722.631 50.3902 723.331 50.9697 723.824 51.7045C724.324 52.4318 724.574 53.2576 724.574 54.1818C724.574 55.1667 724.297 55.9621 723.744 56.5682C723.191 57.1742 722.498 57.6061 721.665 57.8636V58.0455C722.324 58.0909 722.896 58.303 723.381 58.6818C723.873 59.053 724.256 59.5417 724.528 60.1477C724.801 60.7462 724.938 61.4091 724.938 62.1364C724.938 63.197 724.653 64.1212 724.085 64.9091C723.517 65.6894 722.737 66.2955 721.744 66.7273C720.752 67.1515 719.619 67.3636 718.347 67.3636C717.112 67.3636 716.006 67.1629 715.028 66.7614C714.051 66.3523 713.275 65.7879 712.699 65.0682C712.131 64.3409 711.831 63.5 711.801 62.5455ZM733.841 67.4091C732.735 67.4091 731.731 67.2008 730.83 66.7841C729.928 66.3598 729.212 65.75 728.682 64.9545C728.152 64.1515 727.886 63.1818 727.886 62.0455C727.886 61.0455 728.083 60.2348 728.477 59.6136C728.871 58.9848 729.398 58.4924 730.057 58.1364C730.716 57.7803 731.443 57.5152 732.239 57.3409C733.042 57.1591 733.848 57.0152 734.659 56.9091C735.72 56.7727 736.58 56.6705 737.239 56.6023C737.905 56.5265 738.39 56.4015 738.693 56.2273C739.004 56.053 739.159 55.75 739.159 55.3182V55.2273C739.159 54.1061 738.852 53.2348 738.239 52.6136C737.633 51.9924 736.712 51.6818 735.477 51.6818C734.197 51.6818 733.193 51.9621 732.466 52.5227C731.739 53.0833 731.227 53.6818 730.932 54.3182L728.386 53.4091C728.841 52.3485 729.447 51.5227 730.205 50.9318C730.97 50.3333 731.803 49.9167 732.705 49.6818C733.614 49.4394 734.508 49.3182 735.386 49.3182C735.947 49.3182 736.591 49.3864 737.318 49.5227C738.053 49.6515 738.761 49.9205 739.443 50.3295C740.133 50.7386 740.705 51.3561 741.159 52.1818C741.614 53.0076 741.841 54.1136 741.841 55.5V67H739.159V64.6364H739.023C738.841 65.0152 738.538 65.4205 738.114 65.8523C737.689 66.2841 737.125 66.6515 736.42 66.9545C735.716 67.2576 734.856 67.4091 733.841 67.4091ZM734.25 65C735.311 65 736.205 64.7917 736.932 64.375C737.667 63.9583 738.22 63.4205 738.591 62.7614C738.97 62.1023 739.159 61.4091 739.159 60.6818V58.2273C739.045 58.3636 738.795 58.4886 738.409 58.6023C738.03 58.7083 737.591 58.803 737.091 58.8864C736.598 58.9621 736.117 59.0303 735.648 59.0909C735.186 59.1439 734.811 59.1894 734.523 59.2273C733.826 59.3182 733.174 59.4659 732.568 59.6705C731.97 59.8674 731.485 60.1667 731.114 60.5682C730.75 60.9621 730.568 61.5 730.568 62.1818C730.568 63.1136 730.913 63.8182 731.602 64.2955C732.299 64.7652 733.182 65 734.25 65ZM763.872 43.7273V67H761.054V46.6818H760.918L755.236 50.4545V47.5909L761.054 43.7273H763.872ZM778.611 52.0455V49.5455H792.793V52.0455H787.065V67H784.384V52.0455H778.611ZM802.889 67.3636C801.313 67.3636 799.931 66.9886 798.741 66.2386C797.56 65.4886 796.635 64.4394 795.969 63.0909C795.31 61.7424 794.98 60.1667 794.98 58.3636C794.98 56.5455 795.31 54.9583 795.969 53.6023C796.635 52.2462 797.56 51.1932 798.741 50.4432C799.931 49.6932 801.313 49.3182 802.889 49.3182C804.465 49.3182 805.844 49.6932 807.026 50.4432C808.215 51.1932 809.139 52.2462 809.798 53.6023C810.465 54.9583 810.798 56.5455 810.798 58.3636C810.798 60.1667 810.465 61.7424 809.798 63.0909C809.139 64.4394 808.215 65.4886 807.026 66.2386C805.844 66.9886 804.465 67.3636 802.889 67.3636ZM802.889 64.9545C804.086 64.9545 805.071 64.6477 805.844 64.0341C806.616 63.4205 807.188 62.6136 807.56 61.6136C807.931 60.6136 808.116 59.5303 808.116 58.3636C808.116 57.197 807.931 56.1098 807.56 55.1023C807.188 54.0947 806.616 53.2803 805.844 52.6591C805.071 52.0379 804.086 51.7273 802.889 51.7273C801.692 51.7273 800.707 52.0379 799.935 52.6591C799.162 53.2803 798.59 54.0947 798.219 55.1023C797.848 56.1098 797.662 57.197 797.662 58.3636C797.662 59.5303 797.848 60.6136 798.219 61.6136C798.59 62.6136 799.162 63.4205 799.935 64.0341C800.707 64.6477 801.692 64.9545 802.889 64.9545ZM826.574 57.0455V59.5455H816.938V57.0455H826.574ZM817.574 49.5455V67H814.892V49.5455H817.574ZM828.619 49.5455V67H825.938V49.5455H828.619ZM845.199 57.0455V59.5455H835.562V57.0455H845.199ZM836.199 49.5455V67H833.517V49.5455H836.199ZM847.244 49.5455V67H844.562V49.5455H847.244ZM853.244 73.5455C852.79 73.5455 852.384 73.5076 852.028 73.4318C851.672 73.3636 851.426 73.2955 851.29 73.2273L851.972 70.8636C852.623 71.0303 853.199 71.0909 853.699 71.0455C854.199 71 854.642 70.7765 855.028 70.375C855.422 69.9811 855.782 69.3409 856.108 68.4545L856.608 67.0909L850.153 49.5455H853.062L857.881 63.4545H858.062L862.881 49.5455H865.79L858.381 69.5455C858.047 70.447 857.634 71.1932 857.142 71.7841C856.65 72.3826 856.078 72.8258 855.426 73.1136C854.782 73.4015 854.055 73.5455 853.244 73.5455ZM662.206 96.1818C662.206 93.3182 662.577 90.6856 663.32 88.2841C664.07 85.875 665.138 83.6591 666.524 81.6364H668.888C668.342 82.3864 667.831 83.3106 667.354 84.4091C666.884 85.5 666.471 86.7008 666.115 88.0114C665.759 89.3144 665.479 90.6629 665.274 92.0568C665.077 93.4508 664.979 94.8258 664.979 96.1818C664.979 97.9848 665.153 99.8144 665.501 101.67C665.85 103.527 666.32 105.25 666.911 106.841C667.501 108.432 668.161 109.727 668.888 110.727H666.524C665.138 108.705 664.07 106.492 663.32 104.091C662.577 101.682 662.206 99.0455 662.206 96.1818ZM672.845 106V88.5455H679.982C681.86 88.5455 683.353 88.9697 684.459 89.8182C685.565 90.6667 686.118 91.7879 686.118 93.1818C686.118 94.2424 685.804 95.0644 685.175 95.6477C684.546 96.2235 683.739 96.6136 682.754 96.8182C683.398 96.9091 684.023 97.1364 684.629 97.5C685.243 97.8636 685.75 98.3636 686.152 99C686.554 99.6288 686.754 100.402 686.754 101.318C686.754 102.212 686.527 103.011 686.072 103.716C685.618 104.42 684.966 104.977 684.118 105.386C683.269 105.795 682.254 106 681.072 106H672.845ZM675.391 103.545H681.072C681.997 103.545 682.72 103.326 683.243 102.886C683.766 102.447 684.027 101.848 684.027 101.091C684.027 100.189 683.766 99.4811 683.243 98.9659C682.72 98.4432 681.997 98.1818 681.072 98.1818H675.391V103.545ZM675.391 95.8636H679.982C680.701 95.8636 681.319 95.7652 681.834 95.5682C682.349 95.3636 682.743 95.0758 683.016 94.7045C683.296 94.3258 683.436 93.8788 683.436 93.3636C683.436 92.6288 683.129 92.053 682.516 91.6364C681.902 91.2121 681.057 91 679.982 91H675.391V95.8636ZM709.359 102.364L715.45 88.5455H717.996L710.45 106H708.268L700.859 88.5455H703.359L709.359 102.364ZM702.496 88.5455V106H699.814V88.5455H702.496ZM716.223 106V88.5455H718.905V106H716.223ZM731.132 106.364C729.45 106.364 728 105.992 726.78 105.25C725.568 104.5 724.632 103.455 723.973 102.114C723.321 100.765 722.996 99.197 722.996 97.4091C722.996 95.6212 723.321 94.0455 723.973 92.6818C724.632 91.3106 725.549 90.2424 726.723 89.4773C727.905 88.7045 729.284 88.3182 730.859 88.3182C731.768 88.3182 732.666 88.4697 733.553 88.7727C734.439 89.0758 735.246 89.5682 735.973 90.25C736.7 90.9242 737.28 91.8182 737.712 92.9318C738.143 94.0455 738.359 95.4167 738.359 97.0455V98.1818H724.905V95.8636H735.632C735.632 94.8788 735.435 94 735.041 93.2273C734.655 92.4545 734.102 91.8447 733.382 91.3977C732.67 90.9508 731.829 90.7273 730.859 90.7273C729.791 90.7273 728.867 90.9924 728.087 91.5227C727.314 92.0455 726.719 92.7273 726.303 93.5682C725.886 94.4091 725.678 95.3106 725.678 96.2727V97.8182C725.678 99.1364 725.905 100.254 726.359 101.17C726.821 102.08 727.462 102.773 728.28 103.25C729.098 103.72 730.049 103.955 731.132 103.955C731.837 103.955 732.473 103.856 733.041 103.659C733.617 103.455 734.113 103.152 734.53 102.75C734.946 102.341 735.268 101.833 735.496 101.227L738.087 101.955C737.814 102.833 737.356 103.606 736.712 104.273C736.068 104.932 735.272 105.447 734.325 105.818C733.378 106.182 732.314 106.364 731.132 106.364ZM742.439 88.5455H745.121V103.5H751.712V88.5455H754.393V103.5H760.984V88.5455H763.666V106H742.439V88.5455ZM768.564 106V88.5455H771.246V96.1364H773.018L779.291 88.5455H782.746L775.7 96.9545L782.837 106H779.382L773.655 98.6364H771.246V106H768.564ZM790.888 106.409C789.782 106.409 788.778 106.201 787.876 105.784C786.975 105.36 786.259 104.75 785.729 103.955C785.198 103.152 784.933 102.182 784.933 101.045C784.933 100.045 785.13 99.2348 785.524 98.6136C785.918 97.9848 786.445 97.4924 787.104 97.1364C787.763 96.7803 788.49 96.5152 789.286 96.3409C790.089 96.1591 790.895 96.0152 791.706 95.9091C792.767 95.7727 793.626 95.6705 794.286 95.6023C794.952 95.5265 795.437 95.4015 795.74 95.2273C796.051 95.053 796.206 94.75 796.206 94.3182V94.2273C796.206 93.1061 795.899 92.2348 795.286 91.6136C794.679 90.9924 793.759 90.6818 792.524 90.6818C791.244 90.6818 790.24 90.9621 789.513 91.5227C788.786 92.0833 788.274 92.6818 787.979 93.3182L785.433 92.4091C785.888 91.3485 786.494 90.5227 787.251 89.9318C788.017 89.3333 788.85 88.9167 789.751 88.6818C790.661 88.4394 791.554 88.3182 792.433 88.3182C792.994 88.3182 793.638 88.3864 794.365 88.5227C795.1 88.6515 795.808 88.9205 796.49 89.3295C797.179 89.7386 797.751 90.3561 798.206 91.1818C798.661 92.0076 798.888 93.1136 798.888 94.5V106H796.206V103.636H796.07C795.888 104.015 795.585 104.42 795.161 104.852C794.736 105.284 794.172 105.652 793.467 105.955C792.763 106.258 791.903 106.409 790.888 106.409ZM791.297 104C792.357 104 793.251 103.792 793.979 103.375C794.714 102.958 795.267 102.42 795.638 101.761C796.017 101.102 796.206 100.409 796.206 99.6818V97.2273C796.092 97.3636 795.842 97.4886 795.456 97.6023C795.077 97.7083 794.638 97.803 794.138 97.8864C793.645 97.9621 793.164 98.0303 792.695 98.0909C792.232 98.1439 791.857 98.1894 791.57 98.2273C790.873 98.3182 790.221 98.4659 789.615 98.6705C789.017 98.8674 788.532 99.1667 788.161 99.5682C787.797 99.9621 787.615 100.5 787.615 101.182C787.615 102.114 787.96 102.818 788.649 103.295C789.346 103.765 790.229 104 791.297 104ZM805.783 88.5455L809.964 95.6818L814.146 88.5455H817.237L811.601 97.2727L817.237 106H814.146L809.964 99.2273L805.783 106H802.692L808.237 97.2727L802.692 88.5455H805.783ZM826.791 96.1818C826.791 99.0455 826.416 101.682 825.666 104.091C824.924 106.492 823.859 108.705 822.473 110.727H820.109C820.655 109.977 821.162 109.053 821.632 107.955C822.109 106.864 822.526 105.667 822.882 104.364C823.238 103.053 823.515 101.701 823.712 100.307C823.916 98.9053 824.018 97.5303 824.018 96.1818C824.018 94.3788 823.844 92.5492 823.496 90.6932C823.147 88.8371 822.678 87.1136 822.087 85.5227C821.496 83.9318 820.837 82.6364 820.109 81.6364H822.473C823.859 83.6591 824.924 85.875 825.666 88.2841C826.416 90.6856 826.791 93.3182 826.791 96.1818Z" fill="black"/>
<path d="M1055.72 64.3182L1055.4 72.5H1052.49V67H1050.85V64.3182H1055.72ZM1035.94 67V43.7273H1038.62V64.4091H1050.62V43.7273H1053.31V67H1035.94ZM1066.93 67.3636C1065.25 67.3636 1063.8 66.9924 1062.58 66.25C1061.36 65.5 1060.43 64.4545 1059.77 63.1136C1059.12 61.7652 1058.79 60.197 1058.79 58.4091C1058.79 56.6212 1059.12 55.0455 1059.77 53.6818C1060.43 52.3106 1061.35 51.2424 1062.52 50.4773C1063.7 49.7045 1065.08 49.3182 1066.66 49.3182C1067.57 49.3182 1068.46 49.4697 1069.35 49.7727C1070.24 50.0758 1071.04 50.5682 1071.77 51.25C1072.5 51.9242 1073.08 52.8182 1073.51 53.9318C1073.94 55.0455 1074.16 56.4167 1074.16 58.0455V59.1818H1060.7V56.8636H1071.43C1071.43 55.8788 1071.23 55 1070.84 54.2273C1070.45 53.4545 1069.9 52.8447 1069.18 52.3977C1068.47 51.9508 1067.63 51.7273 1066.66 51.7273C1065.59 51.7273 1064.66 51.9924 1063.88 52.5227C1063.11 53.0455 1062.52 53.7273 1062.1 54.5682C1061.68 55.4091 1061.47 56.3106 1061.47 57.2727V58.8182C1061.47 60.1364 1061.7 61.2538 1062.16 62.1705C1062.62 63.0795 1063.26 63.7727 1064.08 64.25C1064.89 64.7197 1065.85 64.9545 1066.93 64.9545C1067.63 64.9545 1068.27 64.8561 1068.84 64.6591C1069.41 64.4545 1069.91 64.1515 1070.33 63.75C1070.74 63.3409 1071.07 62.8333 1071.29 62.2273L1073.88 62.9545C1073.61 63.8333 1073.15 64.6061 1072.51 65.2727C1071.86 65.9318 1071.07 66.447 1070.12 66.8182C1069.18 67.1818 1068.11 67.3636 1066.93 67.3636ZM1089.92 57.0455V59.5455H1080.28V57.0455H1089.92ZM1080.92 49.5455V67H1078.24V49.5455H1080.92ZM1091.96 49.5455V67H1089.28V49.5455H1091.96ZM1102 67.4091C1100.89 67.4091 1099.89 67.2008 1098.99 66.7841C1098.08 66.3598 1097.37 65.75 1096.84 64.9545C1096.31 64.1515 1096.04 63.1818 1096.04 62.0455C1096.04 61.0455 1096.24 60.2348 1096.63 59.6136C1097.03 58.9848 1097.55 58.4924 1098.21 58.1364C1098.87 57.7803 1099.6 57.5152 1100.39 57.3409C1101.2 57.1591 1102 57.0152 1102.82 56.9091C1103.88 56.7727 1104.74 56.6705 1105.39 56.6023C1106.06 56.5265 1106.55 56.4015 1106.85 56.2273C1107.16 56.053 1107.32 55.75 1107.32 55.3182V55.2273C1107.32 54.1061 1107.01 53.2348 1106.39 52.6136C1105.79 51.9924 1104.87 51.6818 1103.63 51.6818C1102.35 51.6818 1101.35 51.9621 1100.62 52.5227C1099.89 53.0833 1099.38 53.6818 1099.09 54.3182L1096.54 53.4091C1097 52.3485 1097.6 51.5227 1098.36 50.9318C1099.13 50.3333 1099.96 49.9167 1100.86 49.6818C1101.77 49.4394 1102.66 49.3182 1103.54 49.3182C1104.1 49.3182 1104.75 49.3864 1105.47 49.5227C1106.21 49.6515 1106.92 49.9205 1107.6 50.3295C1108.29 50.7386 1108.86 51.3561 1109.32 52.1818C1109.77 53.0076 1110 54.1136 1110 55.5V67H1107.32V64.6364H1107.18C1107 65.0152 1106.69 65.4205 1106.27 65.8523C1105.85 66.2841 1105.28 66.6515 1104.58 66.9545C1103.87 67.2576 1103.01 67.4091 1102 67.4091ZM1102.41 65C1103.47 65 1104.36 64.7917 1105.09 64.375C1105.82 63.9583 1106.38 63.4205 1106.75 62.7614C1107.13 62.1023 1107.32 61.4091 1107.32 60.6818V58.2273C1107.2 58.3636 1106.95 58.4886 1106.57 58.6023C1106.19 58.7083 1105.75 58.803 1105.25 58.8864C1104.75 58.9621 1104.27 59.0303 1103.8 59.0909C1103.34 59.1439 1102.97 59.1894 1102.68 59.2273C1101.98 59.3182 1101.33 59.4659 1100.72 59.6705C1100.13 59.8674 1099.64 60.1667 1099.27 60.5682C1098.91 60.9621 1098.72 61.5 1098.72 62.1818C1098.72 63.1136 1099.07 63.8182 1099.76 64.2955C1100.46 64.7652 1101.34 65 1102.41 65ZM1122.8 62.5455H1125.66C1125.73 63.3333 1126.08 63.9318 1126.73 64.3409C1127.39 64.75 1128.25 64.9545 1129.3 64.9545C1130.38 64.9545 1131.3 64.7348 1132.06 64.2955C1132.83 63.8485 1133.21 63.1288 1133.21 62.1364C1133.21 61.553 1133.07 61.0455 1132.78 60.6136C1132.49 60.1742 1132.09 59.8333 1131.56 59.5909C1131.04 59.3485 1130.42 59.2273 1129.71 59.2273H1126.71V56.8182H1129.71C1130.78 56.8182 1131.57 56.5758 1132.07 56.0909C1132.59 55.6061 1132.85 55 1132.85 54.2727C1132.85 53.4924 1132.57 52.8674 1132.02 52.3977C1131.46 51.9205 1130.68 51.6818 1129.66 51.6818C1128.64 51.6818 1127.79 51.9129 1127.11 52.375C1126.43 52.8295 1126.07 53.4167 1126.03 54.1364H1123.21C1123.24 53.197 1123.53 52.3674 1124.07 51.6477C1124.62 50.9205 1125.36 50.3523 1126.3 49.9432C1127.24 49.5265 1128.32 49.3182 1129.53 49.3182C1130.76 49.3182 1131.82 49.5341 1132.72 49.9659C1133.63 50.3902 1134.33 50.9697 1134.82 51.7045C1135.32 52.4318 1135.57 53.2576 1135.57 54.1818C1135.57 55.1667 1135.3 55.9621 1134.74 56.5682C1134.19 57.1742 1133.5 57.6061 1132.66 57.8636V58.0455C1133.32 58.0909 1133.9 58.303 1134.38 58.6818C1134.87 59.053 1135.26 59.5417 1135.53 60.1477C1135.8 60.7462 1135.94 61.4091 1135.94 62.1364C1135.94 63.197 1135.65 64.1212 1135.09 64.9091C1134.52 65.6894 1133.74 66.2955 1132.74 66.7273C1131.75 67.1515 1130.62 67.3636 1129.35 67.3636C1128.11 67.3636 1127.01 67.1629 1126.03 66.7614C1125.05 66.3523 1124.27 65.7879 1123.7 65.0682C1123.13 64.3409 1122.83 63.5 1122.8 62.5455ZM1144.84 67.4091C1143.73 67.4091 1142.73 67.2008 1141.83 66.7841C1140.93 66.3598 1140.21 65.75 1139.68 64.9545C1139.15 64.1515 1138.89 63.1818 1138.89 62.0455C1138.89 61.0455 1139.08 60.2348 1139.48 59.6136C1139.87 58.9848 1140.4 58.4924 1141.06 58.1364C1141.72 57.7803 1142.44 57.5152 1143.24 57.3409C1144.04 57.1591 1144.85 57.0152 1145.66 56.9091C1146.72 56.7727 1147.58 56.6705 1148.24 56.6023C1148.91 56.5265 1149.39 56.4015 1149.69 56.2273C1150 56.053 1150.16 55.75 1150.16 55.3182V55.2273C1150.16 54.1061 1149.85 53.2348 1149.24 52.6136C1148.63 51.9924 1147.71 51.6818 1146.48 51.6818C1145.2 51.6818 1144.19 51.9621 1143.47 52.5227C1142.74 53.0833 1142.23 53.6818 1141.93 54.3182L1139.39 53.4091C1139.84 52.3485 1140.45 51.5227 1141.2 50.9318C1141.97 50.3333 1142.8 49.9167 1143.7 49.6818C1144.61 49.4394 1145.51 49.3182 1146.39 49.3182C1146.95 49.3182 1147.59 49.3864 1148.32 49.5227C1149.05 49.6515 1149.76 49.9205 1150.44 50.3295C1151.13 50.7386 1151.7 51.3561 1152.16 52.1818C1152.61 53.0076 1152.84 54.1136 1152.84 55.5V67H1150.16V64.6364H1150.02C1149.84 65.0152 1149.54 65.4205 1149.11 65.8523C1148.69 66.2841 1148.13 66.6515 1147.42 66.9545C1146.72 67.2576 1145.86 67.4091 1144.84 67.4091ZM1145.25 65C1146.31 65 1147.2 64.7917 1147.93 64.375C1148.67 63.9583 1149.22 63.4205 1149.59 62.7614C1149.97 62.1023 1150.16 61.4091 1150.16 60.6818V58.2273C1150.05 58.3636 1149.8 58.4886 1149.41 58.6023C1149.03 58.7083 1148.59 58.803 1148.09 58.8864C1147.6 58.9621 1147.12 59.0303 1146.65 59.0909C1146.19 59.1439 1145.81 59.1894 1145.52 59.2273C1144.83 59.3182 1144.17 59.4659 1143.57 59.6705C1142.97 59.8674 1142.48 60.1667 1142.11 60.5682C1141.75 60.9621 1141.57 61.5 1141.57 62.1818C1141.57 63.1136 1141.91 63.8182 1142.6 64.2955C1143.3 64.7652 1144.18 65 1145.25 65ZM1174.87 43.7273V67H1172.05V46.6818H1171.92L1166.24 50.4545V47.5909L1172.05 43.7273H1174.87ZM1189.61 52.0455V49.5455H1203.79V52.0455H1198.07V67H1195.38V52.0455H1189.61ZM1213.89 67.3636C1212.31 67.3636 1210.93 66.9886 1209.74 66.2386C1208.56 65.4886 1207.64 64.4394 1206.97 63.0909C1206.31 61.7424 1205.98 60.1667 1205.98 58.3636C1205.98 56.5455 1206.31 54.9583 1206.97 53.6023C1207.64 52.2462 1208.56 51.1932 1209.74 50.4432C1210.93 49.6932 1212.31 49.3182 1213.89 49.3182C1215.46 49.3182 1216.84 49.6932 1218.03 50.4432C1219.21 51.1932 1220.14 52.2462 1220.8 53.6023C1221.46 54.9583 1221.8 56.5455 1221.8 58.3636C1221.8 60.1667 1221.46 61.7424 1220.8 63.0909C1220.14 64.4394 1219.21 65.4886 1218.03 66.2386C1216.84 66.9886 1215.46 67.3636 1213.89 67.3636ZM1213.89 64.9545C1215.09 64.9545 1216.07 64.6477 1216.84 64.0341C1217.62 63.4205 1218.19 62.6136 1218.56 61.6136C1218.93 60.6136 1219.12 59.5303 1219.12 58.3636C1219.12 57.197 1218.93 56.1098 1218.56 55.1023C1218.19 54.0947 1217.62 53.2803 1216.84 52.6591C1216.07 52.0379 1215.09 51.7273 1213.89 51.7273C1212.69 51.7273 1211.71 52.0379 1210.93 52.6591C1210.16 53.2803 1209.59 54.0947 1209.22 55.1023C1208.85 56.1098 1208.66 57.197 1208.66 58.3636C1208.66 59.5303 1208.85 60.6136 1209.22 61.6136C1209.59 62.6136 1210.16 63.4205 1210.93 64.0341C1211.71 64.6477 1212.69 64.9545 1213.89 64.9545ZM1237.57 57.0455V59.5455H1227.94V57.0455H1237.57ZM1228.57 49.5455V67H1225.89V49.5455H1228.57ZM1239.62 49.5455V67H1236.94V49.5455H1239.62ZM1256.2 57.0455V59.5455H1246.56V57.0455H1256.2ZM1247.2 49.5455V67H1244.52V49.5455H1247.2ZM1258.24 49.5455V67H1255.56V49.5455H1258.24ZM1264.24 73.5455C1263.79 73.5455 1263.38 73.5076 1263.03 73.4318C1262.67 73.3636 1262.43 73.2955 1262.29 73.2273L1262.97 70.8636C1263.62 71.0303 1264.2 71.0909 1264.7 71.0455C1265.2 71 1265.64 70.7765 1266.03 70.375C1266.42 69.9811 1266.78 69.3409 1267.11 68.4545L1267.61 67.0909L1261.15 49.5455H1264.06L1268.88 63.4545H1269.06L1273.88 49.5455H1276.79L1269.38 69.5455C1269.05 70.447 1268.63 71.1932 1268.14 71.7841C1267.65 72.3826 1267.08 72.8258 1266.43 73.1136C1265.78 73.4015 1265.05 73.5455 1264.24 73.5455ZM1080.42 96.1818C1080.42 93.3182 1080.8 90.6856 1081.54 88.2841C1082.29 85.875 1083.36 83.6591 1084.74 81.6364H1087.11C1086.56 82.3864 1086.05 83.3106 1085.57 84.4091C1085.1 85.5 1084.69 86.7008 1084.33 88.0114C1083.98 89.3144 1083.7 90.6629 1083.49 92.0568C1083.3 93.4508 1083.2 94.8258 1083.2 96.1818C1083.2 97.9848 1083.37 99.8144 1083.72 101.67C1084.07 103.527 1084.54 105.25 1085.13 106.841C1085.72 108.432 1086.38 109.727 1087.11 110.727H1084.74C1083.36 108.705 1082.29 106.492 1081.54 104.091C1080.8 101.682 1080.42 99.0455 1080.42 96.1818ZM1091.06 112.545V88.5455H1093.65V91.3182H1093.97C1094.17 91.0152 1094.44 90.6288 1094.79 90.1591C1095.15 89.6818 1095.65 89.2576 1096.31 88.8864C1096.98 88.5076 1097.88 88.3182 1099.02 88.3182C1100.49 88.3182 1101.78 88.6856 1102.9 89.4205C1104.03 90.1553 1104.9 91.197 1105.53 92.5455C1106.16 93.8939 1106.47 95.4848 1106.47 97.3182C1106.47 99.1667 1106.16 100.769 1105.53 102.125C1104.9 103.473 1104.03 104.519 1102.92 105.261C1101.8 105.996 1100.52 106.364 1099.06 106.364C1097.94 106.364 1097.04 106.178 1096.37 105.807C1095.7 105.428 1095.18 105 1094.81 104.523C1094.45 104.038 1094.17 103.636 1093.97 103.318H1093.75V112.545H1091.06ZM1093.7 97.2727C1093.7 98.5909 1093.89 99.7538 1094.28 100.761C1094.67 101.761 1095.23 102.545 1095.97 103.114C1096.72 103.674 1097.62 103.955 1098.7 103.955C1099.82 103.955 1100.76 103.659 1101.51 103.068C1102.26 102.47 1102.83 101.667 1103.21 100.659C1103.6 99.6439 1103.79 98.5152 1103.79 97.2727C1103.79 96.0455 1103.6 94.9394 1103.22 93.9545C1102.85 92.9621 1102.29 92.178 1101.53 91.6023C1100.78 91.0189 1099.84 90.7273 1098.7 90.7273C1097.61 90.7273 1096.69 91.0038 1095.95 91.5568C1095.21 92.1023 1094.65 92.8674 1094.27 93.8523C1093.89 94.8295 1093.7 95.9697 1093.7 97.2727ZM1117.65 106.364C1116.08 106.364 1114.7 105.989 1113.51 105.239C1112.33 104.489 1111.4 103.439 1110.73 102.091C1110.08 100.742 1109.75 99.1667 1109.75 97.3636C1109.75 95.5455 1110.08 93.9583 1110.73 92.6023C1111.4 91.2462 1112.33 90.1932 1113.51 89.4432C1114.7 88.6932 1116.08 88.3182 1117.65 88.3182C1119.23 88.3182 1120.61 88.6932 1121.79 89.4432C1122.98 90.1932 1123.9 91.2462 1124.56 92.6023C1125.23 93.9583 1125.56 95.5455 1125.56 97.3636C1125.56 99.1667 1125.23 100.742 1124.56 102.091C1123.9 103.439 1122.98 104.489 1121.79 105.239C1120.61 105.989 1119.23 106.364 1117.65 106.364ZM1117.65 103.955C1118.85 103.955 1119.84 103.648 1120.61 103.034C1121.38 102.42 1121.95 101.614 1122.33 100.614C1122.7 99.6136 1122.88 98.5303 1122.88 97.3636C1122.88 96.197 1122.7 95.1098 1122.33 94.1023C1121.95 93.0947 1121.38 92.2803 1120.61 91.6591C1119.84 91.0379 1118.85 90.7273 1117.65 90.7273C1116.46 90.7273 1115.47 91.0379 1114.7 91.6591C1113.93 92.2803 1113.36 93.0947 1112.98 94.1023C1112.61 95.1098 1112.43 96.197 1112.43 97.3636C1112.43 98.5303 1112.61 99.6136 1112.98 100.614C1113.36 101.614 1113.93 102.42 1114.7 103.034C1115.47 103.648 1116.46 103.955 1117.65 103.955ZM1136.75 106.364C1135.11 106.364 1133.7 105.977 1132.52 105.205C1131.34 104.432 1130.43 103.367 1129.79 102.011C1129.16 100.655 1128.84 99.1061 1128.84 97.3636C1128.84 95.5909 1129.17 94.0265 1129.82 92.6705C1130.48 91.3068 1131.39 90.2424 1132.57 89.4773C1133.75 88.7045 1135.13 88.3182 1136.7 88.3182C1137.93 88.3182 1139.04 88.5455 1140.02 89C1141.01 89.4545 1141.81 90.0909 1142.44 90.9091C1143.07 91.7273 1143.46 92.6818 1143.61 93.7727H1140.93C1140.73 92.9773 1140.27 92.2727 1139.57 91.6591C1138.87 91.0379 1137.93 90.7273 1136.75 90.7273C1135.7 90.7273 1134.79 91 1134 91.5455C1133.22 92.0833 1132.61 92.8447 1132.17 93.8295C1131.74 94.8068 1131.52 95.9545 1131.52 97.2727C1131.52 98.6212 1131.73 99.7955 1132.16 100.795C1132.59 101.795 1133.2 102.572 1133.98 103.125C1134.76 103.678 1135.69 103.955 1136.75 103.955C1137.45 103.955 1138.08 103.833 1138.65 103.591C1139.21 103.348 1139.7 103 1140.09 102.545C1140.48 102.091 1140.76 101.545 1140.93 100.909H1143.61C1143.46 101.939 1143.09 102.867 1142.49 103.693C1141.9 104.511 1141.11 105.163 1140.13 105.648C1139.17 106.125 1138.04 106.364 1136.75 106.364ZM1154.62 106.364C1152.99 106.364 1151.58 105.977 1150.4 105.205C1149.21 104.432 1148.31 103.367 1147.67 102.011C1147.03 100.655 1146.71 99.1061 1146.71 97.3636C1146.71 95.5909 1147.04 94.0265 1147.69 92.6705C1148.35 91.3068 1149.27 90.2424 1150.44 89.4773C1151.62 88.7045 1153 88.3182 1154.58 88.3182C1155.81 88.3182 1156.91 88.5455 1157.9 89C1158.88 89.4545 1159.69 90.0909 1160.32 90.9091C1160.95 91.7273 1161.34 92.6818 1161.49 93.7727H1158.81C1158.6 92.9773 1158.15 92.2727 1157.44 91.6591C1156.74 91.0379 1155.81 90.7273 1154.62 90.7273C1153.58 90.7273 1152.66 91 1151.87 91.5455C1151.09 92.0833 1150.48 92.8447 1150.04 93.8295C1149.61 94.8068 1149.4 95.9545 1149.4 97.2727C1149.4 98.6212 1149.61 99.7955 1150.03 100.795C1150.46 101.795 1151.07 102.572 1151.85 103.125C1152.64 103.678 1153.56 103.955 1154.62 103.955C1155.32 103.955 1155.95 103.833 1156.52 103.591C1157.09 103.348 1157.57 103 1157.96 102.545C1158.36 102.091 1158.64 101.545 1158.81 100.909H1161.49C1161.34 101.939 1160.96 102.867 1160.36 103.693C1159.77 104.511 1158.99 105.163 1158.01 105.648C1157.04 106.125 1155.91 106.364 1154.62 106.364ZM1167.73 94.8636H1172.73C1174.77 94.8636 1176.34 95.3826 1177.42 96.4205C1178.5 97.4583 1179.04 98.7727 1179.04 100.364C1179.04 101.409 1178.8 102.36 1178.32 103.216C1177.83 104.064 1177.12 104.742 1176.18 105.25C1175.24 105.75 1174.09 106 1172.73 106H1165.41V88.5455H1168.09V103.5H1172.73C1173.79 103.5 1174.66 103.22 1175.34 102.659C1176.02 102.098 1176.36 101.379 1176.36 100.5C1176.36 99.5758 1176.02 98.822 1175.34 98.2386C1174.66 97.6553 1173.79 97.3636 1172.73 97.3636H1167.73V94.8636ZM1181.82 106V88.5455H1184.5V106H1181.82ZM1189.41 106V88.5455H1203.13V106H1200.45V91.0455H1192.09V106H1189.41ZM1210.35 94.8636H1215.35C1217.4 94.8636 1218.96 95.3826 1220.04 96.4205C1221.13 97.4583 1221.67 98.7727 1221.67 100.364C1221.67 101.409 1221.43 102.36 1220.94 103.216C1220.46 104.064 1219.74 104.742 1218.81 105.25C1217.87 105.75 1216.71 106 1215.35 106H1208.03V88.5455H1210.71V103.5H1215.35C1216.41 103.5 1217.28 103.22 1217.96 102.659C1218.65 102.098 1218.99 101.379 1218.99 100.5C1218.99 99.5758 1218.65 98.822 1217.96 98.2386C1217.28 97.6553 1216.41 97.3636 1215.35 97.3636H1210.35V94.8636ZM1230.57 96.1818C1230.57 99.0455 1230.2 101.682 1229.45 104.091C1228.71 106.492 1227.64 108.705 1226.25 110.727H1223.89C1224.44 109.977 1224.94 109.053 1225.41 107.955C1225.89 106.864 1226.31 105.667 1226.66 104.364C1227.02 103.053 1227.3 101.701 1227.49 100.307C1227.7 98.9053 1227.8 97.5303 1227.8 96.1818C1227.8 94.3788 1227.63 92.5492 1227.28 90.6932C1226.93 88.8371 1226.46 87.1136 1225.87 85.5227C1225.28 83.9318 1224.62 82.6364 1223.89 81.6364H1226.25C1227.64 83.6591 1228.71 85.875 1229.45 88.2841C1230.2 90.6856 1230.57 93.3182 1230.57 96.1818Z" fill="black"/>
<path d="M1089.61 213.318C1088.65 213.303 1087.7 213.121 1086.74 212.773C1085.79 212.424 1084.92 211.837 1084.13 211.011C1083.34 210.178 1082.71 209.053 1082.23 207.636C1081.75 206.212 1081.51 204.424 1081.51 202.273C1081.51 200.212 1081.71 198.386 1082.09 196.795C1082.48 195.197 1083.04 193.852 1083.78 192.761C1084.51 191.663 1085.4 190.83 1086.43 190.261C1087.48 189.693 1088.66 189.409 1089.97 189.409C1091.27 189.409 1092.43 189.67 1093.45 190.193C1094.47 190.708 1095.3 191.428 1095.95 192.352C1096.59 193.277 1097.01 194.341 1097.2 195.545H1094.42C1094.17 194.5 1093.67 193.633 1092.92 192.943C1092.18 192.254 1091.2 191.909 1089.97 191.909C1088.17 191.909 1086.75 192.693 1085.71 194.261C1084.68 195.83 1084.16 198.03 1084.15 200.864H1084.33C1084.76 200.22 1085.26 199.67 1085.84 199.216C1086.43 198.754 1087.09 198.398 1087.8 198.148C1088.51 197.898 1089.26 197.773 1090.06 197.773C1091.39 197.773 1092.61 198.106 1093.72 198.773C1094.82 199.432 1095.71 200.345 1096.38 201.511C1097.04 202.67 1097.38 204 1097.38 205.5C1097.38 206.939 1097.06 208.258 1096.41 209.455C1095.77 210.644 1094.86 211.591 1093.7 212.295C1092.54 212.992 1091.17 213.333 1089.61 213.318ZM1089.61 210.818C1090.56 210.818 1091.42 210.58 1092.17 210.102C1092.94 209.625 1093.54 208.985 1093.98 208.182C1094.43 207.379 1094.65 206.485 1094.65 205.5C1094.65 204.538 1094.43 203.663 1094 202.875C1093.58 202.08 1092.99 201.447 1092.24 200.977C1091.5 200.508 1090.65 200.273 1089.7 200.273C1088.98 200.273 1088.31 200.417 1087.68 200.705C1087.06 200.985 1086.52 201.371 1086.05 201.864C1085.59 202.356 1085.22 202.92 1084.96 203.557C1084.69 204.186 1084.56 204.848 1084.56 205.545C1084.56 206.47 1084.78 207.333 1085.21 208.136C1085.65 208.939 1086.25 209.587 1087 210.08C1087.77 210.572 1088.64 210.818 1089.61 210.818ZM1109.3 213.318C1107.74 213.318 1106.36 213.042 1105.16 212.489C1103.98 211.928 1103.05 211.159 1102.38 210.182C1101.71 209.197 1101.38 208.076 1101.39 206.818C1101.38 205.833 1101.58 204.924 1101.97 204.091C1102.37 203.25 1102.9 202.549 1103.59 201.989C1104.27 201.42 1105.04 201.061 1105.89 200.909V200.773C1104.78 200.485 1103.89 199.86 1103.23 198.898C1102.57 197.928 1102.25 196.826 1102.26 195.591C1102.25 194.409 1102.55 193.352 1103.15 192.42C1103.76 191.489 1104.59 190.754 1105.65 190.216C1106.72 189.678 1107.94 189.409 1109.3 189.409C1110.65 189.409 1111.85 189.678 1112.91 190.216C1113.98 190.754 1114.81 191.489 1115.41 192.42C1116.03 193.352 1116.34 194.409 1116.35 195.591C1116.34 196.826 1116 197.928 1115.34 198.898C1114.68 199.86 1113.8 200.485 1112.71 200.773V200.909C1113.55 201.061 1114.31 201.42 1114.98 201.989C1115.66 202.549 1116.2 203.25 1116.6 204.091C1117 204.924 1117.2 205.833 1117.21 206.818C1117.2 208.076 1116.86 209.197 1116.19 210.182C1115.52 211.159 1114.59 211.928 1113.4 212.489C1112.22 213.042 1110.85 213.318 1109.3 213.318ZM1109.3 210.818C1110.35 210.818 1111.26 210.648 1112.03 210.307C1112.79 209.966 1113.38 209.485 1113.8 208.864C1114.22 208.242 1114.43 207.515 1114.44 206.682C1114.43 205.803 1114.2 205.027 1113.76 204.352C1113.31 203.678 1112.7 203.148 1111.93 202.761C1111.16 202.375 1110.29 202.182 1109.3 202.182C1108.31 202.182 1107.42 202.375 1106.64 202.761C1105.87 203.148 1105.26 203.678 1104.81 204.352C1104.37 205.027 1104.16 205.803 1104.16 206.682C1104.16 207.515 1104.36 208.242 1104.77 208.864C1105.18 209.485 1105.78 209.966 1106.55 210.307C1107.32 210.648 1108.24 210.818 1109.3 210.818ZM1109.3 199.773C1110.13 199.773 1110.87 199.606 1111.52 199.273C1112.17 198.939 1112.68 198.473 1113.05 197.875C1113.42 197.277 1113.61 196.576 1113.62 195.773C1113.61 194.985 1113.43 194.299 1113.06 193.716C1112.7 193.125 1112.2 192.67 1111.55 192.352C1110.91 192.027 1110.16 191.864 1109.3 191.864C1108.43 191.864 1107.67 192.027 1107.02 192.352C1106.37 192.67 1105.86 193.125 1105.51 193.716C1105.15 194.299 1104.98 194.985 1104.98 195.773C1104.98 196.576 1105.15 197.277 1105.52 197.875C1105.89 198.473 1106.4 198.939 1107.05 199.273C1107.7 199.606 1108.45 199.773 1109.3 199.773ZM1129.16 213.318C1127.44 213.318 1125.99 212.852 1124.78 211.92C1123.58 210.981 1122.66 209.621 1122.02 207.841C1121.38 206.053 1121.07 203.894 1121.07 201.364C1121.07 198.848 1121.38 196.701 1122.02 194.92C1122.66 193.133 1123.59 191.769 1124.79 190.83C1126 189.883 1127.46 189.409 1129.16 189.409C1130.85 189.409 1132.3 189.883 1133.51 190.83C1134.72 191.769 1135.64 193.133 1136.28 194.92C1136.93 196.701 1137.25 198.848 1137.25 201.364C1137.25 203.894 1136.93 206.053 1136.29 207.841C1135.66 209.621 1134.74 210.981 1133.53 211.92C1132.33 212.852 1130.87 213.318 1129.16 213.318ZM1129.16 210.818C1130.85 210.818 1132.17 210 1133.11 208.364C1134.05 206.727 1134.52 204.394 1134.52 201.364C1134.52 199.348 1134.3 197.633 1133.87 196.216C1133.45 194.799 1132.83 193.72 1132.03 192.977C1131.24 192.235 1130.28 191.864 1129.16 191.864C1127.47 191.864 1126.16 192.693 1125.21 194.352C1124.27 196.004 1123.79 198.341 1123.79 201.364C1123.79 203.379 1124 205.091 1124.43 206.5C1124.85 207.909 1125.46 208.981 1126.26 209.716C1127.06 210.451 1128.03 210.818 1129.16 210.818ZM1149.16 213.318C1147.44 213.318 1145.99 212.852 1144.78 211.92C1143.58 210.981 1142.66 209.621 1142.02 207.841C1141.38 206.053 1141.07 203.894 1141.07 201.364C1141.07 198.848 1141.38 196.701 1142.02 194.92C1142.66 193.133 1143.59 191.769 1144.79 190.83C1146 189.883 1147.46 189.409 1149.16 189.409C1150.85 189.409 1152.3 189.883 1153.51 190.83C1154.72 191.769 1155.64 193.133 1156.28 194.92C1156.93 196.701 1157.25 198.848 1157.25 201.364C1157.25 203.894 1156.93 206.053 1156.29 207.841C1155.66 209.621 1154.74 210.981 1153.53 211.92C1152.33 212.852 1150.87 213.318 1149.16 213.318ZM1149.16 210.818C1150.85 210.818 1152.17 210 1153.11 208.364C1154.05 206.727 1154.52 204.394 1154.52 201.364C1154.52 199.348 1154.3 197.633 1153.87 196.216C1153.45 194.799 1152.83 193.72 1152.03 192.977C1151.24 192.235 1150.28 191.864 1149.16 191.864C1147.47 191.864 1146.16 192.693 1145.21 194.352C1144.27 196.004 1143.79 198.341 1143.79 201.364C1143.79 203.379 1144 205.091 1144.43 206.5C1144.85 207.909 1145.46 208.981 1146.26 209.716C1147.06 210.451 1148.03 210.818 1149.16 210.818ZM1170.61 219.545V195.545H1173.2V198.318H1173.52C1173.72 198.015 1173.99 197.629 1174.34 197.159C1174.69 196.682 1175.2 196.258 1175.86 195.886C1176.53 195.508 1177.43 195.318 1178.57 195.318C1180.04 195.318 1181.33 195.686 1182.45 196.42C1183.57 197.155 1184.45 198.197 1185.08 199.545C1185.71 200.894 1186.02 202.485 1186.02 204.318C1186.02 206.167 1185.71 207.769 1185.08 209.125C1184.45 210.473 1183.58 211.519 1182.46 212.261C1181.35 212.996 1180.07 213.364 1178.61 213.364C1177.49 213.364 1176.59 213.178 1175.92 212.807C1175.24 212.428 1174.72 212 1174.36 211.523C1174 211.038 1173.72 210.636 1173.52 210.318H1173.29V219.545H1170.61ZM1173.25 204.273C1173.25 205.591 1173.44 206.754 1173.83 207.761C1174.21 208.761 1174.78 209.545 1175.52 210.114C1176.26 210.674 1177.17 210.955 1178.25 210.955C1179.37 210.955 1180.3 210.659 1181.05 210.068C1181.81 209.47 1182.38 208.667 1182.76 207.659C1183.14 206.644 1183.34 205.515 1183.34 204.273C1183.34 203.045 1183.15 201.939 1182.77 200.955C1182.4 199.962 1181.83 199.178 1181.08 198.602C1180.33 198.019 1179.38 197.727 1178.25 197.727C1177.16 197.727 1176.24 198.004 1175.5 198.557C1174.75 199.102 1174.19 199.867 1173.82 200.852C1173.44 201.83 1173.25 202.97 1173.25 204.273ZM1191.21 219.545C1190.76 219.545 1190.35 219.508 1190 219.432C1189.64 219.364 1189.39 219.295 1189.26 219.227L1189.94 216.864C1190.59 217.03 1191.17 217.091 1191.67 217.045C1192.17 217 1192.61 216.777 1193 216.375C1193.39 215.981 1193.75 215.341 1194.08 214.455L1194.58 213.091L1188.12 195.545H1191.03L1195.85 209.455H1196.03L1200.85 195.545H1203.76L1196.35 215.545C1196.02 216.447 1195.6 217.193 1195.11 217.784C1194.62 218.383 1194.05 218.826 1193.39 219.114C1192.75 219.402 1192.02 219.545 1191.21 219.545ZM1220.25 189L1221.62 190.636C1221.09 191.152 1220.47 191.511 1219.78 191.716C1219.08 191.92 1218.29 192.045 1217.41 192.091C1216.53 192.136 1215.56 192.182 1214.48 192.227C1213.27 192.273 1212.26 192.568 1211.47 193.114C1210.67 193.659 1210.06 194.447 1209.63 195.477C1209.2 196.508 1208.92 197.773 1208.8 199.273H1209.03C1209.62 198.182 1210.43 197.379 1211.48 196.864C1212.53 196.348 1213.65 196.091 1214.84 196.091C1216.21 196.091 1217.43 196.409 1218.53 197.045C1219.62 197.682 1220.48 198.625 1221.12 199.875C1221.75 201.125 1222.07 202.667 1222.07 204.5C1222.07 206.326 1221.75 207.902 1221.09 209.227C1220.45 210.553 1219.54 211.576 1218.38 212.295C1217.22 213.008 1215.86 213.364 1214.3 213.364C1212.74 213.364 1211.37 212.996 1210.2 212.261C1209.02 211.519 1208.11 210.42 1207.46 208.966C1206.81 207.504 1206.48 205.697 1206.48 203.545V201.682C1206.48 197.795 1207.14 194.848 1208.46 192.841C1209.78 190.833 1211.78 189.795 1214.43 189.727C1215.37 189.697 1216.21 189.689 1216.95 189.705C1217.68 189.72 1218.32 189.686 1218.87 189.602C1219.41 189.519 1219.87 189.318 1220.25 189ZM1214.3 210.955C1215.35 210.955 1216.26 210.689 1217.01 210.159C1217.78 209.629 1218.37 208.883 1218.78 207.92C1219.18 206.951 1219.39 205.811 1219.39 204.5C1219.39 203.227 1219.18 202.144 1218.76 201.25C1218.36 200.356 1217.77 199.674 1217 199.205C1216.24 198.735 1215.32 198.5 1214.25 198.5C1213.47 198.5 1212.77 198.633 1212.15 198.898C1211.53 199.163 1211 199.553 1210.56 200.068C1210.12 200.583 1209.78 201.212 1209.54 201.955C1209.3 202.697 1209.18 203.545 1209.16 204.5C1209.16 206.455 1209.62 208.019 1210.54 209.193C1211.45 210.367 1212.71 210.955 1214.3 210.955ZM1228.13 213.182C1227.57 213.182 1227.09 212.981 1226.68 212.58C1226.28 212.178 1226.08 211.697 1226.08 211.136C1226.08 210.576 1226.28 210.095 1226.68 209.693C1227.09 209.292 1227.57 209.091 1228.13 209.091C1228.69 209.091 1229.17 209.292 1229.57 209.693C1229.97 210.095 1230.17 210.576 1230.17 211.136C1230.17 211.508 1230.08 211.848 1229.89 212.159C1229.71 212.47 1229.46 212.72 1229.15 212.909C1228.85 213.091 1228.51 213.182 1228.13 213.182Z" fill="black"/>
</svg>
